M48
; DRILL file {KiCad (5.1.7)-1} date 12/19/21 02:37:59
; FORMAT={-:-/ absolute / metric / decimal}
; #@! TF.CreationDate,2021-12-19T02:37:59+01:00
; #@! TF.GenerationSoftware,Kicad,Pcbnew,(5.1.7)-1
; #@! TF.FileFunction,Plated,1,2,PTH
FMAT,2
METRIC
T1C0.300
T2C0.400
T3C0.700
T4C0.708
T5C0.710
T6C0.750
T7C0.762
T8C0.800
T9C0.890
T10C0.900
T11C0.950
T12C0.990
T13C1.000
T14C1.200
T15C1.300
T16C1.320
T17C1.500
T18C2.290
T19C2.480
T20C2.500
T21C2.690
T22C2.820
T23C3.200
%
G90
G05
T1
X137.65Y-109.179
X146.707Y-107.274
X147.161Y-104.988
X147.429Y-121.371
X147.615Y-102.448
X147.615Y-116.291
X147.683Y-118.831
X150.231Y-99.708
T2
X74.15Y-43.52
X74.15Y-52.41
X74.404Y-69.555
X75.42Y-138.77
X86.342Y-63.459
X86.85Y-98.892
X86.85Y-140.04
X87.993Y-61.046
X89.39Y-121.752
X91.549Y-71.841
X91.549Y-94.701
X91.549Y-98.892
X91.549Y-121.752
X95.74Y-40.98
X97.645Y-120.355
X98.661Y-91.399
X101.582Y-114.767
X104.63Y-131.15
X104.63Y-136.23
X106.373Y-89.283
X107.17Y-113.37
X107.17Y-122.26
X107.424Y-103.337
X107.551Y-94.066
X108.313Y-90.383
X109.075Y-65.11
X109.075Y-72.095
X110.091Y-94.574
X112.123Y-43.52
X112.123Y-50.429
X112.25Y-53.68
X116.06Y-59.395
X120.378Y-118.958
X121.521Y-126.07
X122.283Y-121.625
X122.664Y-123.276
X123.68Y-98.257
X123.764Y-128.78
X126.855Y-136.258
X126.982Y-132.801
X127.271Y-128.356
X127.49Y-51.14
X127.49Y-141.437
X127.906Y-130.896
X127.963Y-111.465
X127.963Y-113.921
X128.414Y-133.182
X128.76Y-98.13
X128.887Y-109.052
X128.887Y-134.579
X128.89Y-116.418
X129.395Y-95.971
X130.76Y-134.322
X131.309Y-132.896
X132.333Y-134.689
X132.854Y-86.954
X133.332Y-79.207
X133.84Y-42.25
X134.729Y-120.228
X135.237Y-87.335
X135.34Y-138.981
X135.618Y-80.042
X136.382Y-142.443
X136.404Y-88.756
X136.405Y-131.887
X136.634Y-47.549
X137.223Y-113.624
X137.778Y-90.156
X139.555Y-90.002
X141.159Y-89.748
X141.221Y-90.831
X141.587Y-98.501
X142.73Y-79.588
X143.111Y-93.685
X143.527Y-110.576
X144.346Y-100.58
X144.346Y-108.544
X146.286Y-101.305
X146.54Y-51.14
X146.54Y-75.27
X147.302Y-97.495
X147.81Y-42.25
X147.937Y-78.445
X149.023Y-78.629
X149.08Y-76.032
X149.185Y-77.589
X150.985Y-75.905
X151.239Y-113.751
X152.89Y-75.778
X152.89Y-85.43
X152.89Y-87.97
X152.947Y-106.131
X153.417Y-100.035
X155.465Y-88.097
X155.938Y-81.747
X156.827Y-94.828
X162.142Y-91.907
X164.32Y-61.363
X164.32Y-124.8
X164.701Y-43.393
X165.145Y-62.887
X165.78Y-71.269
X167.368Y-61.3
X167.869Y-63.468
X168.892Y-126.705
X170.035Y-63.043
X170.225Y-71.841
X170.918Y-51.4
X171.432Y-48.854
X171.94Y-144.612
X172.067Y-99.146
X172.511Y-67.332
X173.21Y-94.32
X173.464Y-77.683
X173.464Y-80.35
X173.464Y-87.335
X173.591Y-68.793
X174.48Y-133.69
X174.48Y-138.77
X174.734Y-90.51
X175.814Y-62.316
X176.131Y-88.224
X176.54Y-61.3
X176.639Y-51.775
X177.21Y-111.846
X178.1Y-61.427
X178.163Y-43.393
X178.29Y-122.26
X178.607Y-63.142
X178.671Y-116.355
X178.925Y-51.521
X179.107Y-105.823
X180.254Y-72.095
X180.322Y-109.179
X180.414Y-107.909
X180.893Y-62.189
X181.592Y-72.222
X185.275Y-45.641
X185.501Y-59.042
X185.91Y-85.43
X186.145Y-45.147
X187.18Y-122.26
X187.434Y-46.026
X188.101Y-50.188
X188.323Y-70.444
X188.548Y-53.78
X188.779Y-46.48
X188.831Y-71.333
X192.26Y-86.446
X192.26Y-113.37
X192.641Y-92.288
X194.673Y-135.722
X194.8Y-68.92
X194.978Y-92.224
X198.483Y-140.04
X199.118Y-116.418
X200.261Y-115.91
X200.261Y-128.737
X200.642Y-92.542
X200.642Y-101.559
X201.785Y-80.985
X201.785Y-83.525
X201.785Y-86.065
X201.785Y-88.605
X202.928Y-91.272
X203.055Y-136.992
X203.293Y-112.719
X205.595Y-146.009
X208.389Y-137.881
X209.278Y-138.897
X210.802Y-107.147
X211.183Y-96.098
X211.31Y-67.65
X211.691Y-93.431
X211.818Y-126.197
X212.072Y-122.006
X212.301Y-59.776
X212.58Y-80.985
X212.58Y-83.525
X212.58Y-86.065
X212.58Y-88.605
X212.58Y-91.78
X212.707Y-142.387
X213.596Y-139.659
X213.977Y-120.482
X214.231Y-97.368
X215.12Y-42.25
X215.12Y-51.14
X216.009Y-130.388
X220.759Y-60.868
X222.74Y-42.25
X222.74Y-51.14
X224.01Y-110.703
X224.01Y-116.697
X225.968Y-116.492
X226.456Y-141.404
X226.55Y-146.39
X227.82Y-68.92
X230.868Y-69.682
X230.995Y-86.065
X232.9Y-145.12
X234.17Y-76.54
X236.075Y-72.095
X236.075Y-93.05
X237.345Y-84.16
X237.463Y-119.446
X240.266Y-112.516
X241.155Y-77.81
X241.155Y-96.86
X242.952Y-121.529
X243.06Y-126.07
X244.584Y-116.418
X249.283Y-109.433
X255.76Y-134.96
X255.76Y-138.77
X257.157Y-106.766
X258.3Y-101.94
X258.3Y-123.53
T3
X241.536Y-61.3
X241.536Y-63.84
X239.377Y-70.635
X241.917Y-70.635
X236.011Y-100.987
X238.551Y-100.987
X234.742Y-70.635
X237.281Y-70.635
X243.377Y-46.695
X243.377Y-49.235
X243.377Y-41.996
X243.377Y-44.536
X245.536Y-101.305
X248.076Y-101.305
X240.837Y-101.305
X243.377Y-101.305
T4
X238.107Y-94.32
X238.107Y-96.86
X240.647Y-94.32
X238.107Y-86.192
X238.107Y-88.732
X240.647Y-86.192
T5
X136.405Y-111.338
X136.405Y-118.958
X221.074Y-55.732
X221.074Y-63.352
X197.213Y-107.147
X204.833Y-107.147
X123.807Y-89.367
X131.427Y-89.367
X230.741Y-103.845
X238.361Y-103.845
X169.53Y-68.48
X177.15Y-68.48
X118.854Y-139.786
X118.854Y-147.406
X207.881Y-107.147
X215.501Y-107.147
X244.393Y-57.744
X244.393Y-65.364
X96.248Y-145.12
X103.868Y-145.12
X208.402Y-77.302
X216.022Y-77.302
X224.645Y-67.777
X232.265Y-67.777
X238.742Y-61.046
X238.742Y-68.666
X140.444Y-44.536
X148.064Y-44.536
X224.442Y-55.712
X224.442Y-63.332
X246.298Y-41.869
X246.298Y-49.489
X136.38Y-93.431
X136.38Y-101.051
X164.447Y-93.812
X164.447Y-101.432
X186.291Y-91.907
X186.291Y-99.527
X235.313Y-61.046
X235.313Y-68.666
T6
X237.028Y-78.826
X237.028Y-80.096
X237.028Y-81.366
X237.028Y-73.301
X237.028Y-74.572
X237.028Y-75.841
T7
X131.383Y-82.491
X131.383Y-85.031
X133.923Y-82.491
X133.923Y-85.031
X136.463Y-82.491
X136.463Y-85.031
X139.003Y-82.491
X139.003Y-85.031
X141.543Y-82.491
X141.543Y-85.031
X144.083Y-82.491
X144.083Y-85.031
X146.623Y-82.491
X146.623Y-85.031
X149.163Y-82.491
X149.163Y-85.031
X83.548Y-98.892
X83.548Y-101.432
X83.548Y-103.972
X83.548Y-106.512
X83.548Y-109.052
X83.548Y-111.592
X83.548Y-114.132
X83.548Y-116.672
X83.548Y-119.212
X83.548Y-121.752
X96.248Y-98.892
X96.248Y-101.432
X96.248Y-103.972
X96.248Y-106.512
X96.248Y-109.052
X96.248Y-111.592
X96.248Y-114.132
X96.248Y-116.672
X96.248Y-119.212
X96.248Y-121.752
X83.548Y-71.714
X83.548Y-74.254
X83.548Y-76.794
X83.548Y-79.334
X83.548Y-81.874
X83.548Y-84.414
X83.548Y-86.954
X83.548Y-89.494
X83.548Y-92.034
X83.548Y-94.574
X96.248Y-71.714
X96.248Y-74.254
X96.248Y-76.794
X96.248Y-79.334
X96.248Y-81.874
X96.248Y-84.414
X96.248Y-86.954
X96.248Y-89.494
X96.248Y-92.034
X96.248Y-94.574
X212.351Y-53.553
X214.891Y-53.553
X217.431Y-53.553
X219.971Y-53.553
X222.511Y-53.553
X225.051Y-53.553
X227.591Y-53.553
X230.131Y-53.553
X232.671Y-53.553
X239.377Y-40.472
X239.377Y-43.012
X239.377Y-45.552
X239.377Y-48.092
X239.377Y-50.632
X239.377Y-53.172
X164.32Y-129.626
X166.86Y-129.626
X169.4Y-129.626
X171.94Y-129.626
X174.48Y-129.626
X177.02Y-129.626
X167.495Y-49.997
X170.035Y-49.997
X172.575Y-49.997
X175.115Y-49.997
X177.655Y-49.997
X180.195Y-49.997
T8
X191.244Y-118.704
X191.244Y-126.324
X193.784Y-118.704
X193.784Y-126.324
X247.378Y-107.274
X247.378Y-109.814
X247.378Y-112.354
X247.378Y-114.894
X247.378Y-117.434
X247.378Y-119.974
X215.476Y-68.082
X215.476Y-70.622
X227.647Y-121.64
X230.187Y-121.64
X232.727Y-121.64
X235.267Y-121.64
X237.807Y-121.64
X240.347Y-121.64
X208.135Y-80.731
X208.135Y-83.271
X208.135Y-85.811
X208.135Y-88.351
X208.135Y-90.891
X208.135Y-93.431
X208.135Y-95.971
X208.135Y-98.511
X208.135Y-101.051
X208.135Y-103.591
X215.755Y-80.731
X215.755Y-83.271
X215.755Y-85.811
X215.755Y-88.351
X215.755Y-90.891
X215.755Y-93.431
X215.755Y-95.971
X215.755Y-98.511
X215.755Y-101.051
X215.755Y-103.591
X224.899Y-84.795
X232.519Y-84.795
X189.212Y-95.209
X196.832Y-95.209
X194.101Y-108.861
X194.101Y-116.481
X139.174Y-144.612
X146.794Y-144.612
X167.749Y-73.746
X167.749Y-76.286
X167.749Y-78.826
X167.749Y-81.366
X167.749Y-83.906
X167.749Y-86.446
X167.749Y-88.986
X167.749Y-91.526
X167.749Y-94.066
X167.749Y-96.606
X167.749Y-99.146
X167.749Y-101.686
X167.749Y-104.226
X167.749Y-106.766
X167.749Y-109.306
X167.749Y-111.846
X167.749Y-114.386
X167.749Y-116.926
X167.749Y-119.466
X167.749Y-122.006
X182.989Y-73.746
X182.989Y-76.286
X182.989Y-78.826
X182.989Y-81.366
X182.989Y-83.906
X182.989Y-86.446
X182.989Y-88.986
X182.989Y-91.526
X182.989Y-94.066
X182.989Y-96.606
X182.989Y-99.146
X182.989Y-101.686
X182.989Y-104.226
X182.989Y-106.766
X182.989Y-109.306
X182.989Y-111.846
X182.989Y-114.386
X182.989Y-116.926
X182.989Y-119.466
X182.989Y-122.006
X224.899Y-75.27
X232.519Y-75.27
X240.901Y-74.191
X240.901Y-81.81
X105.773Y-144.993
X115.933Y-144.993
X88.374Y-129.499
X95.994Y-129.499
X109.71Y-78.318
X109.71Y-85.938
X112.25Y-78.318
X112.25Y-85.938
X114.79Y-78.318
X114.79Y-85.938
X117.33Y-78.318
X117.33Y-85.938
X119.87Y-78.318
X119.87Y-85.938
X122.41Y-78.318
X122.41Y-85.938
X124.95Y-78.318
X124.95Y-85.938
X127.49Y-78.318
X127.49Y-85.938
X164.637Y-67.332
X164.637Y-74.953
X224.899Y-78.445
X232.519Y-78.445
X227.647Y-131.724
X230.187Y-131.724
X232.727Y-131.724
X235.267Y-131.724
X237.807Y-131.724
X240.347Y-131.724
X224.899Y-87.97
X232.519Y-87.97
X182.608Y-69.237
X185.108Y-69.237
X139.682Y-93.431
X139.682Y-95.971
X139.682Y-98.511
X139.682Y-101.051
X139.682Y-103.591
X139.682Y-106.131
X139.682Y-108.671
X139.682Y-111.211
X139.682Y-113.751
X139.682Y-116.291
X139.682Y-118.831
X139.682Y-121.371
X139.682Y-123.911
X139.682Y-126.451
X139.682Y-128.991
X139.682Y-131.531
X139.682Y-134.071
X139.682Y-136.611
X139.682Y-139.151
X139.682Y-141.691
X154.922Y-93.431
X154.922Y-95.971
X154.922Y-98.511
X154.922Y-101.051
X154.922Y-103.591
X154.922Y-106.131
X154.922Y-108.671
X154.922Y-111.211
X154.922Y-113.751
X154.922Y-116.291
X154.922Y-118.831
X154.922Y-121.371
X154.922Y-123.911
X154.922Y-126.451
X154.922Y-128.991
X154.922Y-131.531
X154.922Y-134.071
X154.922Y-136.611
X154.922Y-139.151
X154.922Y-141.691
X101.963Y-76.286
X101.963Y-83.906
X88.374Y-126.832
X95.994Y-126.832
X207.754Y-55.839
X207.754Y-65.999
X240.266Y-104.226
X247.886Y-104.226
X215.45Y-63.23
X217.95Y-63.23
X227.337Y-64.704
X232.337Y-64.704
X183.369Y-137.24
X183.369Y-140.04
X185.469Y-140.04
X188.069Y-140.04
X190.169Y-137.24
X190.169Y-140.04
X164.447Y-106.131
X164.447Y-116.291
X208.135Y-110.576
X208.135Y-113.116
X208.135Y-115.656
X208.135Y-118.196
X208.135Y-120.736
X208.135Y-123.276
X208.135Y-125.816
X215.755Y-110.576
X215.755Y-113.116
X215.755Y-115.656
X215.755Y-118.196
X215.755Y-120.736
X215.755Y-123.276
X215.755Y-125.816
X227.642Y-135.082
X230.182Y-135.082
X232.722Y-135.082
X235.262Y-135.082
X237.802Y-135.082
X240.342Y-135.082
X224.899Y-81.62
X232.519Y-81.62
X204.897Y-55.839
X204.897Y-63.459
X117.838Y-93.431
X117.838Y-95.971
X117.838Y-98.511
X117.838Y-101.051
X117.838Y-103.591
X117.838Y-106.131
X117.838Y-108.671
X117.838Y-111.211
X117.838Y-113.751
X117.838Y-116.291
X117.838Y-118.831
X117.838Y-121.371
X117.838Y-123.911
X117.838Y-126.451
X117.838Y-128.991
X117.838Y-131.531
X133.078Y-93.431
X133.078Y-95.971
X133.078Y-98.511
X133.078Y-101.051
X133.078Y-103.591
X133.078Y-106.131
X133.078Y-108.671
X133.078Y-111.211
X133.078Y-113.751
X133.078Y-116.291
X133.078Y-118.831
X133.078Y-121.371
X133.078Y-123.911
X133.078Y-126.451
X133.078Y-128.991
X133.078Y-131.531
X227.637Y-138.44
X230.177Y-138.44
X232.717Y-138.44
X235.257Y-138.44
X237.797Y-138.44
X240.337Y-138.44
X227.642Y-128.351
X230.182Y-128.351
X232.722Y-128.351
X235.262Y-128.351
X237.802Y-128.351
X240.342Y-128.351
X235.059Y-107.147
X235.059Y-109.687
X235.059Y-112.227
X235.059Y-114.767
X242.679Y-107.147
X242.679Y-109.687
X242.679Y-112.227
X242.679Y-114.767
X99.423Y-93.431
X99.423Y-95.971
X99.423Y-98.511
X99.423Y-101.051
X99.423Y-103.591
X99.423Y-106.131
X99.423Y-108.671
X99.423Y-111.211
X99.423Y-113.751
X99.423Y-116.291
X99.423Y-118.831
X99.423Y-121.371
X99.423Y-123.911
X99.423Y-126.451
X99.423Y-128.991
X99.423Y-131.531
X99.423Y-134.071
X99.423Y-136.611
X99.423Y-139.151
X99.423Y-141.691
X114.663Y-93.431
X114.663Y-95.971
X114.663Y-98.511
X114.663Y-101.051
X114.663Y-103.591
X114.663Y-106.131
X114.663Y-108.671
X114.663Y-111.211
X114.663Y-113.751
X114.663Y-116.291
X114.663Y-118.831
X114.663Y-121.371
X114.663Y-123.911
X114.663Y-126.451
X114.663Y-128.991
X114.663Y-131.531
X114.663Y-134.071
X114.663Y-136.611
X114.663Y-139.151
X114.663Y-141.691
X197.213Y-110.576
X197.213Y-113.116
X197.213Y-115.656
X197.213Y-118.196
X197.213Y-120.736
X197.213Y-123.276
X197.213Y-125.816
X204.833Y-110.576
X204.833Y-113.116
X204.833Y-115.656
X204.833Y-118.196
X204.833Y-120.736
X204.833Y-123.276
X204.833Y-125.816
X225.788Y-92.859
X225.788Y-95.399
X225.788Y-97.939
X225.788Y-100.48
X233.408Y-92.859
X233.408Y-95.399
X233.408Y-97.939
X233.408Y-100.48
X190.99Y-108.861
X190.99Y-116.481
X204.833Y-80.858
X204.833Y-83.398
X204.833Y-85.938
X204.833Y-88.478
X204.833Y-91.018
X204.833Y-93.558
X204.833Y-96.098
X204.833Y-98.638
X204.833Y-101.178
X196.578Y-50.06
X206.738Y-50.06
X196.578Y-53.172
X206.738Y-53.172
X189.212Y-92.161
X196.832Y-92.161
X164.422Y-78.61
X164.422Y-81.15
X164.422Y-83.69
X164.422Y-86.23
X164.422Y-88.77
X164.422Y-91.31
X227.642Y-124.998
X230.182Y-124.998
X232.722Y-124.998
X235.262Y-124.998
X237.802Y-124.998
X240.342Y-124.998
X224.899Y-72.095
X232.519Y-72.095
X191.689Y-72.984
X191.689Y-83.144
X244.52Y-67.206
X244.52Y-74.825
X235.186Y-57.49
X237.686Y-57.49
X227.947Y-118.196
X230.487Y-118.196
X233.027Y-118.196
X235.567Y-118.196
T9
X249.333Y-62.982
X249.333Y-69.682
X251.823Y-62.982
X251.823Y-69.682
T10
X200.617Y-47.538
X203.157Y-47.538
X190.279Y-47.355
X192.819Y-47.355
T11
X122.036Y-143.156
X123.426Y-138.956
X125.966Y-138.956
X128.506Y-138.956
X131.046Y-138.956
X132.436Y-143.156
T12
X189.441Y-41.691
X193.941Y-41.691
X199.474Y-41.717
X203.974Y-41.717
T13
X228.201Y-56.41
X230.741Y-56.41
X75.628Y-57.193
X75.628Y-59.963
X75.628Y-62.733
X75.628Y-65.503
X78.468Y-55.808
X78.468Y-58.578
X78.468Y-61.348
X78.468Y-64.118
X78.468Y-66.888
X180.703Y-128.991
X183.243Y-128.991
X185.783Y-128.991
X192.133Y-103.591
X194.673Y-103.591
X197.213Y-103.591
X199.753Y-103.591
X83.802Y-67.523
X86.342Y-67.523
X88.882Y-67.523
X101.201Y-68.412
X101.201Y-70.912
X186.418Y-108.036
X186.418Y-110.576
X186.418Y-113.116
X186.418Y-115.656
X186.418Y-118.196
X189.91Y-99.908
X192.451Y-99.908
X194.99Y-99.908
X197.53Y-99.908
X200.07Y-99.908
X74.912Y-144.866
X77.452Y-144.866
X79.992Y-144.866
X180.703Y-132.674
X183.243Y-132.674
X185.783Y-132.674
X136.634Y-40.726
X139.174Y-40.726
X141.714Y-40.726
X144.254Y-40.726
X106.025Y-53.895
X106.025Y-56.435
X106.025Y-58.975
X106.025Y-61.515
X106.025Y-64.055
X106.025Y-66.596
X106.025Y-69.135
X106.025Y-71.675
X106.025Y-74.215
X106.025Y-76.755
X106.025Y-79.295
X106.025Y-81.835
X158.36Y-68.0
X158.36Y-70.54
X158.36Y-73.08
X158.36Y-75.62
X158.36Y-78.16
X158.36Y-80.7
X158.36Y-83.24
X158.36Y-85.78
X158.36Y-88.32
X158.36Y-90.86
X158.36Y-93.4
X158.36Y-95.94
X158.36Y-98.48
X158.36Y-101.02
X158.36Y-103.56
X158.36Y-106.1
X158.36Y-108.64
X158.36Y-111.18
X158.36Y-113.72
X158.36Y-116.26
X158.36Y-118.8
X158.36Y-121.34
X158.36Y-123.88
X158.36Y-126.42
X158.36Y-128.96
X158.36Y-131.5
X158.36Y-134.04
X158.36Y-136.58
X158.36Y-139.12
X158.36Y-141.66
X158.36Y-144.2
X158.36Y-146.74
X160.9Y-68.0
X160.9Y-70.54
X160.9Y-73.08
X160.9Y-75.62
X160.9Y-78.16
X160.9Y-80.7
X160.9Y-83.24
X160.9Y-85.78
X160.9Y-88.32
X160.9Y-90.86
X160.9Y-93.4
X160.9Y-95.94
X160.9Y-98.48
X160.9Y-101.02
X160.9Y-103.56
X160.9Y-106.1
X160.9Y-108.64
X160.9Y-111.18
X160.9Y-113.72
X160.9Y-116.26
X160.9Y-118.8
X160.9Y-121.34
X160.9Y-123.88
X160.9Y-126.42
X160.9Y-128.96
X160.9Y-131.5
X160.9Y-134.04
X160.9Y-136.58
X160.9Y-139.12
X160.9Y-141.66
X160.9Y-144.2
X160.9Y-146.74
X87.358Y-144.993
X89.898Y-144.993
X92.438Y-144.993
X237.253Y-142.684
X237.253Y-146.644
X238.398Y-144.664
X239.543Y-142.684
X239.543Y-146.644
X240.688Y-144.664
X241.833Y-142.684
X241.833Y-146.644
X242.978Y-144.664
X244.123Y-142.684
X244.123Y-146.644
X245.268Y-144.664
X246.413Y-142.684
X246.413Y-146.644
X247.558Y-144.664
X192.641Y-56.601
X192.641Y-59.141
X195.181Y-56.601
X195.181Y-59.141
X197.721Y-56.601
X197.721Y-59.141
X228.201Y-60.284
X230.741Y-60.284
X219.3Y-68.0
X219.3Y-70.54
X219.3Y-73.08
X219.3Y-75.62
X219.3Y-78.16
X219.3Y-80.7
X219.3Y-83.24
X219.3Y-85.78
X219.3Y-88.32
X219.3Y-90.86
X219.3Y-93.4
X219.3Y-95.94
X219.3Y-98.48
X219.3Y-101.02
X219.3Y-103.56
X219.3Y-106.1
X219.3Y-108.64
X219.3Y-111.18
X219.3Y-113.72
X219.3Y-116.26
X219.3Y-118.8
X219.3Y-121.34
X219.3Y-123.88
X219.3Y-126.42
X219.3Y-128.96
X219.3Y-131.5
X219.3Y-134.04
X219.3Y-136.58
X219.3Y-139.12
X219.3Y-141.66
X219.3Y-144.2
X219.3Y-146.74
X221.84Y-68.0
X221.84Y-70.54
X221.84Y-73.08
X221.84Y-75.62
X221.84Y-78.16
X221.84Y-80.7
X221.84Y-83.24
X221.84Y-85.78
X221.84Y-88.32
X221.84Y-90.86
X221.84Y-93.4
X221.84Y-95.94
X221.84Y-98.48
X221.84Y-101.02
X221.84Y-103.56
X221.84Y-106.1
X221.84Y-108.64
X221.84Y-111.18
X221.84Y-113.72
X221.84Y-116.26
X221.84Y-118.8
X221.84Y-121.34
X221.84Y-123.88
X221.84Y-126.42
X221.84Y-128.96
X221.84Y-131.5
X221.84Y-134.04
X221.84Y-136.58
X221.84Y-139.12
X221.84Y-141.66
X221.84Y-144.2
X221.84Y-146.74
X110.98Y-89.367
X113.52Y-89.367
X116.06Y-89.367
X118.6Y-89.367
X121.14Y-89.367
X228.074Y-104.48
X228.074Y-107.02
X228.074Y-109.56
X228.074Y-112.1
X228.074Y-114.64
X252.331Y-110.449
X252.331Y-113.219
X252.331Y-115.989
X252.331Y-118.759
X252.331Y-121.529
X255.171Y-111.834
X255.171Y-114.604
X255.171Y-117.374
X255.171Y-120.144
X212.339Y-56.804
X214.879Y-56.804
X217.419Y-56.804
X250.172Y-54.124
X252.712Y-54.124
X75.691Y-90.468
X75.691Y-93.239
X75.691Y-96.008
X75.691Y-98.778
X75.691Y-101.548
X75.691Y-104.319
X75.691Y-107.088
X75.691Y-109.858
X75.691Y-112.628
X75.691Y-115.398
X75.691Y-118.168
X75.691Y-120.938
X78.531Y-89.084
X78.531Y-91.853
X78.531Y-94.623
X78.531Y-97.393
X78.531Y-100.163
X78.531Y-102.933
X78.531Y-105.703
X78.531Y-108.474
X78.531Y-111.243
X78.531Y-114.013
X78.531Y-116.783
X78.531Y-119.553
X78.531Y-122.323
X118.522Y-53.908
X118.522Y-56.448
X118.522Y-58.988
X118.522Y-61.528
X96.074Y-55.585
X101.074Y-55.585
T14
X89.771Y-63.078
X102.471Y-63.078
T15
X188.191Y-44.181
X195.201Y-44.181
X198.224Y-44.207
X205.234Y-44.207
T16
X244.888Y-82.967
X244.888Y-92.967
X247.378Y-80.477
X247.378Y-87.967
X247.378Y-95.457
T17
X198.873Y-136.228
X201.373Y-133.728
X201.373Y-146.228
X206.373Y-131.228
X206.373Y-136.228
X211.373Y-133.728
X211.373Y-146.228
X213.873Y-136.228
X257.388Y-85.477
X257.388Y-90.457
T18
X254.823Y-59.572
X254.823Y-73.092
X255.633Y-66.332
T19
X257.322Y-41.81
X257.322Y-50.31
T20
X187.18Y-76.032
X204.833Y-75.968
T21
X249.672Y-46.06
T22
X254.172Y-46.06
T23
X229.598Y-144.104
X254.598Y-144.104
X85.48Y-53.99
X127.871Y-43.139
X252.631Y-103.489
X252.631Y-128.489
X85.54Y-134.05
X153.017Y-43.139
X78.231Y-82.153
X78.231Y-129.254
X245.16Y-53.89
X245.219Y-133.944
X78.168Y-48.848
X78.168Y-73.848
T13
X179.919Y-142.14G85X179.919Y-143.64
G05
X185.769Y-143.69G85X187.769Y-143.69
G05
X193.619Y-142.14G85X193.619Y-143.64
G05
T0
M30
